<svg xmlns="http://www.w3.org/2000/svg" xmlns:xlink="http://www.w3.org/1999/xlink" width="600" zoomAndPan="magnify" viewBox="0 0 450 449.999984" height="600" preserveAspectRatio="xMidYMid meet" version="1.0"><defs><g/><clipPath id="bd67de762f"><path d="M 349.332031 190.007812 L 404.839844 190.007812 L 404.839844 245.515625 L 349.332031 245.515625 Z M 349.332031 190.007812 " clip-rule="nonzero"/></clipPath></defs><rect x="-45" width="540" fill="#ffffff" y="-44.999998" height="539.99998" fill-opacity="1"/><rect x="-45" width="540" fill="#ffffff" y="-44.999998" height="539.99998" fill-opacity="1"/><g fill="#004aad" fill-opacity="1"><g transform="translate(6.366645, 243.410451)"><g><path d="M 5.125 -1.53125 L 11.28125 -3.078125 L 11.28125 -68.734375 L 5.125 -70.28125 L 5.125 -71.8125 L 33.859375 -71.8125 C 45.210938 -71.8125 53.347656 -69.945312 58.265625 -66.21875 C 63.191406 -62.5 65.65625 -57.015625 65.65625 -49.765625 C 65.65625 -42.515625 63.191406 -37.023438 58.265625 -33.296875 C 53.347656 -29.566406 45.210938 -27.703125 33.859375 -27.703125 L 28.21875 -27.703125 L 28.21875 -3.078125 L 34.375 -1.53125 L 34.375 0 L 5.125 0 Z M 33.859375 -30.265625 C 38.160156 -30.265625 41.628906 -31.90625 44.265625 -35.1875 C 46.898438 -38.46875 48.21875 -43.328125 48.21875 -49.765625 C 48.21875 -56.117188 46.898438 -60.953125 44.265625 -64.265625 C 41.628906 -67.585938 38.160156 -69.25 33.859375 -69.25 L 28.21875 -69.25 L 28.21875 -30.265625 Z M 33.859375 -30.265625 "/></g></g></g><g fill="#004aad" fill-opacity="1"><g transform="translate(76.941305, 243.410451)"><g><path d="M 24.109375 1.53125 C 18.023438 1.53125 13.335938 0.234375 10.046875 -2.359375 C 6.765625 -4.960938 5.125 -8.28125 5.125 -12.3125 C 5.125 -14.976562 5.707031 -17.613281 6.875 -20.21875 C 7.351562 -21.445312 7.96875 -22.570312 8.71875 -23.59375 C 11.519531 -24.28125 14.5625 -24.894531 17.84375 -25.4375 C 25.238281 -26.675781 31.773438 -27.429688 37.453125 -27.703125 L 37.453125 -30.78125 C 37.453125 -38.375 36.523438 -43.601562 34.671875 -46.46875 C 32.828125 -49.34375 29.988281 -50.78125 26.15625 -50.78125 C 24.71875 -50.78125 23.488281 -50.609375 22.46875 -50.265625 L 21.03125 -49.765625 L 21.03125 -34.375 L 19.703125 -34.0625 C 18.609375 -33.925781 17.679688 -33.859375 16.921875 -33.859375 C 14.597656 -33.859375 12.734375 -34.554688 11.328125 -35.953125 C 9.929688 -37.359375 9.234375 -39.222656 9.234375 -41.546875 C 9.234375 -44.691406 10.820312 -47.359375 14 -49.546875 C 17.1875 -51.734375 21.925781 -52.828125 28.21875 -52.828125 C 33.550781 -52.828125 38.148438 -51.882812 42.015625 -50 C 45.878906 -48.125 48.816406 -45.523438 50.828125 -42.203125 C 52.847656 -38.890625 53.859375 -35.082031 53.859375 -30.78125 L 53.859375 -3.078125 L 60.015625 -1.53125 L 60.015625 0 L 50.78125 0 C 46.675781 0 43.5 -1.265625 41.25 -3.796875 C 40.289062 -4.816406 39.535156 -6.113281 38.984375 -7.6875 C 38.023438 -5.976562 36.894531 -4.441406 35.59375 -3.078125 C 32.519531 -0.00390625 28.691406 1.53125 24.109375 1.53125 Z M 28.21875 -2.046875 C 30.75 -2.046875 33.039062 -3.414062 35.09375 -6.15625 C 35.84375 -7.175781 36.628906 -8.546875 37.453125 -10.265625 L 37.453125 -25.140625 C 34.304688 -25.140625 31.296875 -24.96875 28.421875 -24.625 C 26.296875 -24.351562 24.859375 -24.179688 24.109375 -24.109375 C 23.765625 -23.359375 23.421875 -22.332031 23.078125 -21.03125 C 22.398438 -18.4375 22.0625 -15.875 22.0625 -13.34375 C 22.0625 -9.507812 22.640625 -6.664062 23.796875 -4.8125 C 24.960938 -2.96875 26.4375 -2.046875 28.21875 -2.046875 Z M 28.21875 -2.046875 "/></g></g></g><g fill="#004aad" fill-opacity="1"><g transform="translate(140.33542, 243.410451)"><g><path d="M 30.78125 1.53125 C 26.257812 1.53125 22.34375 0.710938 19.03125 -0.921875 C 15.71875 -2.566406 13.171875 -4.820312 11.390625 -7.6875 C 9.609375 -10.5625 8.71875 -13.8125 8.71875 -17.4375 L 8.71875 -48.734375 L 1.53125 -48.734375 L 1.53125 -51.296875 L 8.71875 -51.296875 L 8.71875 -56.421875 C 8.71875 -62.578125 11.796875 -65.65625 17.953125 -65.65625 L 25.140625 -65.65625 L 25.140625 -51.296875 L 39.5 -51.296875 L 39.5 -48.734375 L 25.140625 -48.734375 L 25.140625 -17.4375 C 25.140625 -11.144531 25.785156 -6.835938 27.078125 -4.515625 C 28.378906 -2.191406 30.296875 -1.03125 32.828125 -1.03125 C 35.285156 -1.03125 37.4375 -2.222656 39.28125 -4.609375 C 41.132812 -7.003906 42.0625 -10.253906 42.0625 -14.359375 L 44.625 -14.359375 C 44.625 -9.296875 43.359375 -5.378906 40.828125 -2.609375 C 38.296875 0.148438 34.945312 1.53125 30.78125 1.53125 Z M 30.78125 1.53125 "/></g></g></g><g fill="#004aad" fill-opacity="1"><g transform="translate(187.829765, 243.410451)"><g><path d="M 4.109375 -1.53125 L 10.265625 -3.078125 L 10.265625 -68.734375 L 4.109375 -70.28125 L 4.109375 -71.8125 L 17.4375 -71.8125 C 23.59375 -71.8125 26.671875 -68.734375 26.671875 -62.578125 L 26.671875 -46.171875 C 27.703125 -47.535156 28.765625 -48.628906 29.859375 -49.453125 C 32.796875 -51.703125 36.179688 -52.828125 40.015625 -52.828125 C 43.835938 -52.828125 47.269531 -52.023438 50.3125 -50.421875 C 53.363281 -48.816406 55.742188 -46.710938 57.453125 -44.109375 C 59.160156 -41.515625 60.015625 -38.78125 60.015625 -35.90625 L 60.015625 -3.078125 L 66.171875 -1.53125 L 66.171875 0 L 52.828125 0 C 46.679688 0 43.609375 -3.078125 43.609375 -9.234375 L 43.609375 -35.90625 C 43.609375 -40.21875 42.835938 -43.519531 41.296875 -45.8125 C 39.753906 -48.101562 37.957031 -49.25 35.90625 -49.25 C 33.3125 -49.25 30.988281 -47.878906 28.9375 -45.140625 C 28.039062 -43.972656 27.285156 -42.601562 26.671875 -41.03125 L 26.671875 -3.078125 L 32.828125 -1.53125 L 32.828125 0 L 4.109375 0 Z M 4.109375 -1.53125 "/></g></g></g><g fill="#000000" fill-opacity="1"><g transform="translate(277.78491, 243.968057)"><g><path d="M 5.125 -1.53125 L 11.28125 -3.078125 L 11.28125 -68.734375 L 5.125 -70.28125 L 5.125 -71.8125 L 33.859375 -71.8125 C 45.210938 -71.8125 53.347656 -69.945312 58.265625 -66.21875 C 63.191406 -62.5 65.65625 -57.015625 65.65625 -49.765625 C 65.65625 -42.515625 63.191406 -37.023438 58.265625 -33.296875 C 53.347656 -29.566406 45.210938 -27.703125 33.859375 -27.703125 L 28.21875 -27.703125 L 28.21875 -3.078125 L 34.375 -1.53125 L 34.375 0 L 5.125 0 Z M 33.859375 -30.265625 C 38.160156 -30.265625 41.628906 -31.90625 44.265625 -35.1875 C 46.898438 -38.46875 48.21875 -43.328125 48.21875 -49.765625 C 48.21875 -56.117188 46.898438 -60.953125 44.265625 -64.265625 C 41.628906 -67.585938 38.160156 -69.25 33.859375 -69.25 L 28.21875 -69.25 L 28.21875 -30.265625 Z M 33.859375 -30.265625 "/></g></g></g><g fill="#000000" fill-opacity="1"><g transform="translate(347.038372, 243.968057)"><g/></g></g><g fill="#000000" fill-opacity="1"><g transform="translate(375.760552, 243.968057)"><g/></g></g><g fill="#000000" fill-opacity="1"><g transform="translate(404.49115, 243.968057)"><g><path d="M 4.109375 -1.53125 L 10.265625 -3.078125 L 10.265625 -68.734375 L 4.109375 -70.28125 L 4.109375 -71.8125 L 17.4375 -71.8125 C 23.59375 -71.8125 26.671875 -68.734375 26.671875 -62.578125 L 26.671875 -3.078125 L 32.828125 -1.53125 L 32.828125 0 L 4.109375 0 Z M 4.109375 -1.53125 "/></g></g></g><path fill="#004aad" d="M 372.421875 223.941406 L 370.03125 223.941406 C 368.921875 223.941406 367.988281 223.007812 367.988281 221.902344 L 367.988281 217.644531 C 367.988281 216.539062 368.921875 215.605469 370.03125 215.605469 L 372.421875 215.605469 C 373.527344 215.605469 374.460938 216.539062 374.460938 217.644531 L 374.460938 221.902344 C 374.460938 223.007812 373.585938 223.941406 372.421875 223.941406 Z M 372.421875 223.941406 " fill-opacity="1" fill-rule="nonzero"/><path fill="#004aad" d="M 382.625 223.941406 L 380.234375 223.941406 C 379.125 223.941406 378.191406 223.007812 378.191406 221.902344 L 378.191406 217.644531 C 378.191406 216.539062 379.125 215.605469 380.234375 215.605469 L 382.625 215.605469 C 383.730469 215.605469 384.664062 216.539062 384.664062 217.644531 L 384.664062 221.902344 C 384.664062 223.007812 383.730469 223.941406 382.625 223.941406 Z M 382.625 223.941406 " fill-opacity="1" fill-rule="nonzero"/><g clip-path="url(#bd67de762f)"><path fill="#004aad" d="M 377.027344 190.007812 C 361.75 190.007812 349.332031 202.425781 349.332031 217.703125 C 349.332031 232.980469 361.75 245.398438 377.027344 245.398438 L 400.347656 245.398438 C 402.796875 245.398438 404.722656 243.414062 404.722656 241.023438 L 404.722656 217.703125 C 404.722656 202.425781 392.304688 190.007812 377.027344 190.007812 Z M 396.441406 221.609375 C 396.441406 223.417969 394.984375 224.816406 393.234375 224.816406 L 391.777344 224.816406 C 391.660156 224.816406 391.488281 224.816406 391.371094 224.757812 C 389.039062 229.714844 383.5 233.152344 377.027344 233.152344 C 370.554688 233.152344 365.015625 229.714844 362.742188 224.816406 L 361.285156 224.816406 C 359.476562 224.816406 358.078125 223.359375 358.078125 221.609375 L 358.078125 217.9375 C 358.078125 216.128906 359.535156 214.730469 361.285156 214.730469 L 362.683594 214.730469 C 364.667969 210.53125 369.097656 207.382812 374.460938 206.625 L 374.460938 203.128906 C 373.355469 202.484375 372.597656 201.320312 372.597656 199.921875 C 372.597656 197.878906 374.226562 196.246094 376.269531 196.246094 C 378.308594 196.246094 379.941406 197.878906 379.941406 199.921875 C 379.941406 201.261719 379.183594 202.484375 378.078125 203.128906 L 378.078125 206.449219 C 384.082031 206.859375 389.097656 210.125 391.253906 214.730469 C 391.371094 214.730469 391.542969 214.671875 391.660156 214.671875 L 393.117188 214.671875 C 394.925781 214.671875 396.324219 216.128906 396.324219 217.878906 L 396.324219 221.609375 Z M 396.441406 221.609375 " fill-opacity="1" fill-rule="nonzero"/></g></svg>